<svg  stroke="#fff" xmlns="http://www.w3.org/2000/svg" viewBox="0 0 64 80" x="0px" y="0px"><g data-name="Layer 65"><polygon points="28.13 35.98 35.02 32 28.13 28.02 28.13 35.98"/><path d="M49.45,18.64C40.13,17.56,30.43,17,21.1,18l-6.55.65a4.48,4.48,0,0,0-4.05,4.47V40.89a4.48,4.48,0,0,0,4.05,4.47A159.82,159.82,0,0,0,32,46.55a159.82,159.82,0,0,0,17.45-1.19h0a4.48,4.48,0,0,0,4-4.47V23.11A4.48,4.48,0,0,0,49.45,18.64ZM38.77,33.3,27.38,39.88a1.51,1.51,0,0,1-2.25-1.3V25.42a1.51,1.51,0,0,1,2.25-1.3L38.77,30.7A1.51,1.51,0,0,1,38.77,33.3Z"/></g></svg>